<?xml version="1.0" encoding="UTF-8"?>
<svg width="140px" height="40px" viewBox="0 0 140 40" version="1.1" xmlns="http://www.w3.org/2000/svg" xmlns:xlink="http://www.w3.org/1999/xlink">
    <!-- Generator: Sketch 51.2 (57519) - http://www.bohemiancoding.com/sketch -->
    <title>Group 2</title>
    <desc>Created with Sketch.</desc>
    <defs></defs>
    <g id="Page-1" stroke="none" stroke-width="1" fill="none" fill-rule="evenodd">
        <g id="zam_website_homepage-" transform="translate(-150.000000, -8375.000000)" fill-rule="nonzero">
            <g id="Group-57" transform="translate(0.000000, 7680.000000)">
                <g id="Group-55" transform="translate(150.000000, 695.000000)">
                    <g id="Group-2">
                        <rect id="Rectangle-path" fill-opacity="0" fill="#000000" x="0" y="0" width="140" height="40"></rect>
                        <rect id="Rectangle-path" fill="#282E66" x="0" y="0" width="140" height="40" rx="5"></rect>
                        <path d="M47.7773,16.3945 L47.0312,16.3945 L47.0312,15 L42.9492,15 L42.9492,16.3984 L42.1992,16.3984 L42.1953,14.3867 L42.6602,14.3867 C42.9049,14.1107 43.099,13.7409 43.2422,13.2773 C43.388,12.8112 43.4792,12.3008 43.5156,11.7461 L43.6406,9.3125 L47.043,9.3125 L47.043,14.3867 L47.7852,14.3867 L47.7773,16.3945 Z M43.5156,14.3867 L46.2891,14.3867 L46.2891,9.92969 L44.3633,9.92969 L44.2812,11.6016 C44.2474,12.2552 44.1602,12.8125 44.0195,13.2734 C43.8815,13.7344 43.7135,14.1055 43.5156,14.3867 Z M52.957,12.3398 C52.957,12.8971 52.8633,13.3841 52.6758,13.8008 C52.4883,14.2148 52.2227,14.5312 51.8789,14.75 C51.5352,14.9688 51.1341,15.0781 50.6758,15.0781 C50.2279,15.0781 49.8307,14.9688 49.4844,14.75 C49.138,14.5286 48.8685,14.2148 48.6758,13.8086 C48.4857,13.3997 48.388,12.9271 48.3828,12.3906 L48.3828,11.9805 C48.3828,11.4336 48.4779,10.9505 48.668,10.5312 C48.8581,10.112 49.1263,9.79167 49.4727,9.57031 C49.8216,9.34635 50.2201,9.23438 50.668,9.23438 C51.1237,9.23438 51.5247,9.34505 51.8711,9.56641 C52.2201,9.78516 52.4883,10.1042 52.6758,10.5234 C52.8633,10.9401 52.957,11.4258 52.957,11.9805 L52.957,12.3398 Z M52.2109,11.9727 C52.2109,11.2982 52.0755,10.7812 51.8047,10.4219 C51.5339,10.0599 51.1549,9.87891 50.668,9.87891 C50.194,9.87891 49.8203,10.0599 49.5469,10.4219 C49.276,10.7812 49.1367,11.2812 49.1289,11.9219 L49.1289,12.3398 C49.1289,12.9935 49.2656,13.5078 49.5391,13.8828 C49.8151,14.2552 50.194,14.4414 50.6758,14.4414 C51.1602,14.4414 51.5352,14.2656 51.8008,13.9141 C52.0664,13.5599 52.2031,13.0534 52.2109,12.3945 L52.2109,11.9727 Z M58.2656,13.1953 C58.1953,13.7969 57.9727,14.2617 57.5977,14.5898 C57.2253,14.9154 56.7292,15.0781 56.1094,15.0781 C55.4375,15.0781 54.8984,14.8372 54.4922,14.3555 C54.0885,13.8737 53.8867,13.2292 53.8867,12.4219 L53.8867,11.875 C53.8867,11.3464 53.9805,10.8815 54.168,10.4805 C54.3581,10.0794 54.6263,9.77214 54.9727,9.55859 C55.319,9.34245 55.7201,9.23438 56.1758,9.23438 C56.7799,9.23438 57.2643,9.40365 57.6289,9.74219 C57.9935,10.0781 58.2057,10.5443 58.2656,11.1406 L57.5117,11.1406 C57.4466,10.6875 57.3047,10.3594 57.0859,10.1562 C56.8698,9.95312 56.5664,9.85156 56.1758,9.85156 C55.6966,9.85156 55.3203,10.0286 55.0469,10.3828 C54.776,10.737 54.6406,11.2409 54.6406,11.8945 L54.6406,12.4453 C54.6406,13.0625 54.7695,13.5534 55.0273,13.918 C55.2852,14.2826 55.6458,14.4648 56.1094,14.4648 C56.526,14.4648 56.8451,14.3711 57.0664,14.1836 C57.2904,13.9935 57.4388,13.6641 57.5117,13.1953 L58.2656,13.1953 Z M63.1055,9.92969 L61.2773,9.92969 L61.2773,15 L60.5312,15 L60.5312,9.92969 L58.707,9.92969 L58.707,9.3125 L63.1055,9.3125 L63.1055,9.92969 Z M65.9023,12.6133 L67.2109,9.3125 L68.082,9.3125 L66.0703,14.0508 C65.9349,14.3529 65.8086,14.5677 65.6914,14.6953 C65.5742,14.8203 65.4362,14.9167 65.2773,14.9844 C65.1211,15.0495 64.9245,15.082 64.6875,15.082 C64.4818,15.082 64.3503,15.0703 64.293,15.0469 L64.3164,14.4531 L64.6719,14.4688 C64.9453,14.4688 65.1484,14.3372 65.2812,14.0742 L65.3789,13.8711 L65.5273,13.5234 L63.5898,9.3125 L64.4297,9.3125 L65.9023,12.6133 Z M73.3242,15 L72.5703,15 L72.5703,9.92969 L69.7656,9.92969 L69.7656,15 L69.0156,15 L69.0156,9.3125 L73.3242,9.3125 L73.3242,15 Z M79.0625,15 L78.3086,15 L78.3086,12.3711 L75.4414,12.3711 L75.4414,15 L74.6914,15 L74.6914,9.3125 L75.4414,9.3125 L75.4414,11.7578 L78.3086,11.7578 L78.3086,9.3125 L79.0625,9.3125 L79.0625,15 Z M84.7695,12.3398 C84.7695,12.8971 84.6758,13.3841 84.4883,13.8008 C84.3008,14.2148 84.0352,14.5312 83.6914,14.75 C83.3477,14.9688 82.9466,15.0781 82.4883,15.0781 C82.0404,15.0781 81.6432,14.9688 81.2969,14.75 C80.9505,14.5286 80.681,14.2148 80.4883,13.8086 C80.2982,13.3997 80.2005,12.9271 80.1953,12.3906 L80.1953,11.9805 C80.1953,11.4336 80.2904,10.9505 80.4805,10.5312 C80.6706,10.112 80.9388,9.79167 81.2852,9.57031 C81.6341,9.34635 82.0326,9.23438 82.4805,9.23438 C82.9362,9.23438 83.3372,9.34505 83.6836,9.56641 C84.0326,9.78516 84.3008,10.1042 84.4883,10.5234 C84.6758,10.9401 84.7695,11.4258 84.7695,11.9805 L84.7695,12.3398 Z M84.0234,11.9727 C84.0234,11.2982 83.888,10.7812 83.6172,10.4219 C83.3464,10.0599 82.9674,9.87891 82.4805,9.87891 C82.0065,9.87891 81.6328,10.0599 81.3594,10.4219 C81.0885,10.7812 80.9492,11.2812 80.9414,11.9219 L80.9414,12.3398 C80.9414,12.9935 81.0781,13.5078 81.3516,13.8828 C81.6276,14.2552 82.0065,14.4414 82.4883,14.4414 C82.9727,14.4414 83.3477,14.2656 83.6133,13.9141 C83.8789,13.5599 84.0156,13.0534 84.0234,12.3945 L84.0234,11.9727 Z M87.8789,15 L87.8789,9.3125 L89.7383,9.3125 C90.3555,9.3125 90.819,9.4401 91.1289,9.69531 C91.4414,9.95052 91.5977,10.3281 91.5977,10.8281 C91.5977,11.0938 91.5221,11.3294 91.3711,11.5352 C91.2201,11.7383 91.0143,11.8958 90.7539,12.0078 C91.0612,12.0938 91.3034,12.2578 91.4805,12.5 C91.6602,12.7396 91.75,13.026 91.75,13.3594 C91.75,13.8698 91.5846,14.2708 91.2539,14.5625 C90.9232,14.8542 90.4557,15 89.8516,15 L87.8789,15 Z M88.6289,12.3398 L88.6289,14.3867 L89.8672,14.3867 C90.2161,14.3867 90.4909,14.2969 90.6914,14.1172 C90.8945,13.9349 90.9961,13.6849 90.9961,13.3672 C90.9961,12.6823 90.6237,12.3398 89.8789,12.3398 L88.6289,12.3398 Z M88.6289,11.7383 L89.7617,11.7383 C90.0898,11.7383 90.3516,11.6562 90.5469,11.4922 C90.7448,11.3281 90.8438,11.1055 90.8438,10.8242 C90.8438,10.5117 90.7526,10.2852 90.5703,10.1445 C90.388,10.0013 90.1107,9.92969 89.7383,9.92969 L88.6289,9.92969 L88.6289,11.7383 Z M51.875,29.5234 C51.4635,30.0599 50.8932,30.4661 50.1641,30.7422 C49.4349,31.0182 48.6068,31.1562 47.6797,31.1562 C46.7266,31.1562 45.8828,30.9401 45.1484,30.5078 C44.4141,30.0755 43.8464,29.4583 43.4453,28.6562 C43.0495,27.849 42.8438,26.9089 42.8281,25.8359 L42.8281,24.9453 C42.8281,23.2266 43.2396,21.8854 44.0625,20.9219 C44.8854,19.9531 46.0339,19.4688 47.5078,19.4688 C48.7734,19.4688 49.7786,19.7812 50.5234,20.4062 C51.2682,21.0312 51.7161,21.9323 51.8672,23.1094 L49.9297,23.1094 C49.7109,21.7396 48.9167,21.0547 47.5469,21.0547 C46.6615,21.0547 45.987,21.375 45.5234,22.0156 C45.0651,22.651 44.8281,23.5859 44.8125,24.8203 L44.8125,25.6953 C44.8125,26.9245 45.0703,27.8802 45.5859,28.5625 C46.1068,29.2396 46.8281,29.5781 47.75,29.5781 C48.7604,29.5781 49.4792,29.349 49.9062,28.8906 L49.9062,26.6641 L47.5625,26.6641 L47.5625,25.1641 L51.875,25.1641 L51.875,29.5234 Z M53.5078,26.6953 C53.5078,25.8672 53.6719,25.1224 54,24.4609 C54.3281,23.7943 54.7891,23.2839 55.3828,22.9297 C55.9766,22.5703 56.6589,22.3906 57.4297,22.3906 C58.5703,22.3906 59.4948,22.7578 60.2031,23.4922 C60.9167,24.2266 61.3021,25.2005 61.3594,26.4141 L61.3672,26.8594 C61.3672,27.6927 61.2057,28.4375 60.8828,29.0938 C60.5651,29.75 60.1068,30.2578 59.5078,30.6172 C58.9141,30.9766 58.2266,31.1562 57.4453,31.1562 C56.2526,31.1562 55.2969,30.7604 54.5781,29.9688 C53.8646,29.1719 53.5078,28.112 53.5078,26.7891 L53.5078,26.6953 Z M55.4062,26.8594 C55.4062,27.7292 55.5859,28.4115 55.9453,28.9062 C56.3047,29.3958 56.8047,29.6406 57.4453,29.6406 C58.0859,29.6406 58.5833,29.3906 58.9375,28.8906 C59.2969,28.3906 59.4766,27.6589 59.4766,26.6953 C59.4766,25.8411 59.2917,25.1641 58.9219,24.6641 C58.5573,24.1641 58.0599,23.9141 57.4297,23.9141 C56.8099,23.9141 56.3177,24.1615 55.9531,24.6562 C55.5885,25.1458 55.4062,25.8802 55.4062,26.8594 Z M62.6172,26.6953 C62.6172,25.8672 62.7812,25.1224 63.1094,24.4609 C63.4375,23.7943 63.8984,23.2839 64.4922,22.9297 C65.0859,22.5703 65.7682,22.3906 66.5391,22.3906 C67.6797,22.3906 68.6042,22.7578 69.3125,23.4922 C70.026,24.2266 70.4115,25.2005 70.4688,26.4141 L70.4766,26.8594 C70.4766,27.6927 70.3151,28.4375 69.9922,29.0938 C69.6745,29.75 69.2161,30.2578 68.6172,30.6172 C68.0234,30.9766 67.3359,31.1562 66.5547,31.1562 C65.362,31.1562 64.4062,30.7604 63.6875,29.9688 C62.974,29.1719 62.6172,28.112 62.6172,26.7891 L62.6172,26.6953 Z M64.5156,26.8594 C64.5156,27.7292 64.6953,28.4115 65.0547,28.9062 C65.4141,29.3958 65.9141,29.6406 66.5547,29.6406 C67.1953,29.6406 67.6927,29.3906 68.0469,28.8906 C68.4062,28.3906 68.5859,27.6589 68.5859,26.6953 C68.5859,25.8411 68.401,25.1641 68.0312,24.6641 C67.6667,24.1641 67.1693,23.9141 66.5391,23.9141 C65.9193,23.9141 65.4271,24.1615 65.0625,24.6562 C64.6979,25.1458 64.5156,25.8802 64.5156,26.8594 Z M71.75,26.7109 C71.75,25.3984 72.0573,24.3516 72.6719,23.5703 C73.2917,22.7839 74.112,22.3906 75.1328,22.3906 C76.0964,22.3906 76.8542,22.7266 77.4062,23.3984 L77.4922,22.5469 L79.2031,22.5469 L79.2031,30.7422 C79.2031,31.8516 78.8568,32.7266 78.1641,33.3672 C77.4766,34.0078 76.5469,34.3281 75.375,34.3281 C74.7552,34.3281 74.1484,34.1979 73.5547,33.9375 C72.9661,33.6823 72.5182,33.3464 72.2109,32.9297 L73.1094,31.7891 C73.6927,32.4818 74.4115,32.8281 75.2656,32.8281 C75.8958,32.8281 76.3932,32.6562 76.7578,32.3125 C77.1224,31.974 77.3047,31.474 77.3047,30.8125 L77.3047,30.2422 C76.7578,30.8516 76.0286,31.1562 75.1172,31.1562 C74.1276,31.1562 73.3177,30.763 72.6875,29.9766 C72.0625,29.1901 71.75,28.1016 71.75,26.7109 Z M73.6406,26.875 C73.6406,27.724 73.8125,28.3932 74.1562,28.8828 C74.5052,29.3672 74.987,29.6094 75.6016,29.6094 C76.3672,29.6094 76.9349,29.2812 77.3047,28.625 L77.3047,24.9062 C76.9453,24.2656 76.3828,23.9453 75.6172,23.9453 C74.9922,23.9453 74.5052,24.1927 74.1562,24.6875 C73.8125,25.1823 73.6406,25.9115 73.6406,26.875 Z M83.1797,31 L81.2812,31 L81.2812,19 L83.1797,19 L83.1797,31 Z M88.9766,31.1562 C87.7734,31.1562 86.7969,30.7786 86.0469,30.0234 C85.3021,29.263 84.9297,28.2526 84.9297,26.9922 L84.9297,26.7578 C84.9297,25.9141 85.0911,25.1615 85.4141,24.5 C85.7422,23.8333 86.2005,23.3151 86.7891,22.9453 C87.3776,22.5755 88.0339,22.3906 88.7578,22.3906 C89.9089,22.3906 90.7969,22.7578 91.4219,23.4922 C92.0521,24.2266 92.3672,25.2656 92.3672,26.6094 L92.3672,27.375 L86.8438,27.375 C86.901,28.0729 87.1328,28.625 87.5391,29.0312 C87.9505,29.4375 88.4661,29.6406 89.0859,29.6406 C89.9557,29.6406 90.6641,29.2891 91.2109,28.5859 L92.2344,29.5625 C91.8958,30.0677 91.4427,30.4609 90.875,30.7422 C90.3125,31.0182 89.6797,31.1562 88.9766,31.1562 Z M88.75,23.9141 C88.2292,23.9141 87.8073,24.0964 87.4844,24.4609 C87.1667,24.8255 86.9635,25.3333 86.875,25.9844 L90.4922,25.9844 L90.4922,25.8438 C90.4505,25.2083 90.2812,24.7292 89.9844,24.4062 C89.6875,24.0781 89.276,23.9141 88.75,23.9141 Z M99.9922,26.7734 L99.9922,31 L98.0156,31 L98.0156,19.625 L102.367,19.625 C103.638,19.625 104.646,19.9557 105.391,20.6172 C106.141,21.2786 106.516,22.1536 106.516,23.2422 C106.516,24.3568 106.148,25.224 105.414,25.8438 C104.685,26.4635 103.661,26.7734 102.344,26.7734 L99.9922,26.7734 Z M99.9922,25.1875 L102.367,25.1875 C103.07,25.1875 103.607,25.0234 103.977,24.6953 C104.346,24.362 104.531,23.8828 104.531,23.2578 C104.531,22.6432 104.344,22.1536 103.969,21.7891 C103.594,21.4193 103.078,21.2292 102.422,21.2188 L99.9922,21.2188 L99.9922,25.1875 Z M110.086,31 L108.188,31 L108.188,19 L110.086,19 L110.086,31 Z M117.211,31 C117.128,30.8385 117.055,30.5755 116.992,30.2109 C116.388,30.8411 115.648,31.1562 114.773,31.1562 C113.924,31.1562 113.232,30.9141 112.695,30.4297 C112.159,29.9453 111.891,29.3464 111.891,28.6328 C111.891,27.7318 112.224,27.0417 112.891,26.5625 C113.562,26.0781 114.521,25.8359 115.766,25.8359 L116.93,25.8359 L116.93,25.2812 C116.93,24.8438 116.807,24.4948 116.562,24.2344 C116.318,23.9688 115.945,23.8359 115.445,23.8359 C115.013,23.8359 114.659,23.9453 114.383,24.1641 C114.107,24.3776 113.969,24.651 113.969,24.9844 L112.07,24.9844 C112.07,24.5208 112.224,24.0885 112.531,23.6875 C112.839,23.2812 113.255,22.9635 113.781,22.7344 C114.312,22.5052 114.904,22.3906 115.555,22.3906 C116.544,22.3906 117.333,22.6406 117.922,23.1406 C118.51,23.6354 118.812,24.3333 118.828,25.2344 L118.828,29.0469 C118.828,29.8073 118.935,30.4141 119.148,30.8672 L119.148,31 L117.211,31 Z M115.125,29.6328 C115.5,29.6328 115.852,29.5417 116.18,29.3594 C116.513,29.1771 116.763,28.9323 116.93,28.625 L116.93,27.0312 L115.906,27.0312 C115.203,27.0312 114.674,27.1536 114.32,27.3984 C113.966,27.6432 113.789,27.9896 113.789,28.4375 C113.789,28.8021 113.909,29.0938 114.148,29.3125 C114.393,29.526 114.719,29.6328 115.125,29.6328 Z M123.648,28.2812 L125.367,22.5469 L127.391,22.5469 L124.031,32.2812 C123.516,33.7031 122.641,34.4141 121.406,34.4141 C121.13,34.4141 120.826,34.3672 120.492,34.2734 L120.492,32.8047 L120.852,32.8281 C121.331,32.8281 121.69,32.7396 121.93,32.5625 C122.174,32.3906 122.367,32.099 122.508,31.6875 L122.781,30.9609 L119.812,22.5469 L121.859,22.5469 L123.648,28.2812 Z" id="Shape" fill="#FFFFFF"></path>
                        <rect id="Rectangle-path" fill-opacity="0" fill="#000000" x="11" y="7" width="23" height="26"></rect>
                        <polygon id="Shape" fill="#00C9FF" points="11 7 11 19.7719 11 33 24.6837 19.7719"></polygon>
                        <polygon id="Shape" fill="#03E572" points="28.2414 16.1684 22.8135 13.0667 11 7 24.6837 19.7719"></polygon>
                        <polygon id="Shape" fill="#F83548" points="11 33 22.8135 26.4772 28.2414 23.3754 24.6837 19.7719"></polygon>
                        <path d="M28.2413,16.1684 L24.6836,19.7719 L28.2413,23.3754 L33.7604,20.1824 C34.0797,19.9999 34.0797,19.5894 33.7604,19.407 L28.2413,16.1684 Z" id="Shape" fill="#FFC900"></path>
                    </g>
                </g>
            </g>
        </g>
    </g>
</svg>