<?xml version="1.0" encoding="UTF-8"?>
<svg width="140px" height="40px" viewBox="0 0 140 40" version="1.1" xmlns="http://www.w3.org/2000/svg" xmlns:xlink="http://www.w3.org/1999/xlink">
    <!-- Generator: Sketch 51.2 (57519) - http://www.bohemiancoding.com/sketch -->
    <title>Group</title>
    <desc>Created with Sketch.</desc>
    <defs></defs>
    <g id="Page-1" stroke="none" stroke-width="1" fill="none" fill-rule="evenodd">
        <g id="zam_website_homepage-" transform="translate(-309.000000, -8375.000000)" fill-rule="nonzero">
            <g id="Group-57" transform="translate(0.000000, 7680.000000)">
                <g id="Group-55" transform="translate(150.000000, 695.000000)">
                    <g id="Group" transform="translate(159.000000, 0.000000)">
                        <rect id="Rectangle-path" fill-opacity="0" fill="#000000" x="0" y="0" width="140" height="40"></rect>
                        <rect id="Rectangle-path" fill="#282E66" x="0" y="0" width="140" height="40" rx="5"></rect>
                        <path d="M46.5781,10.8398 C46.5781,10.5378 46.4674,10.2982 46.2461,10.1211 C46.0273,9.94141 45.7188,9.85156 45.3203,9.85156 C44.987,9.85156 44.707,9.94401 44.4805,10.1289 C44.2565,10.3112 44.1445,10.5378 44.1445,10.8086 L43.3945,10.8086 C43.3945,10.5065 43.4766,10.2357 43.6406,9.99609 C43.8073,9.75651 44.0391,9.57031 44.3359,9.4375 C44.6328,9.30208 44.9609,9.23438 45.3203,9.23438 C45.9557,9.23438 46.4492,9.3776 46.8008,9.66406 C47.1523,9.94792 47.3281,10.3438 47.3281,10.8516 C47.3281,11.1146 47.2474,11.3542 47.0859,11.5703 C46.9245,11.7865 46.6992,11.957 46.4102,12.082 C47.0794,12.306 47.4141,12.75 47.4141,13.4141 C47.4141,13.9245 47.224,14.3294 46.8438,14.6289 C46.4635,14.9284 45.9557,15.0781 45.3203,15.0781 C44.9427,15.0781 44.599,15.0117 44.2891,14.8789 C43.9818,14.7435 43.7422,14.5521 43.5703,14.3047 C43.3984,14.0573 43.3125,13.763 43.3125,13.4219 L44.0625,13.4219 C44.0625,13.7214 44.181,13.9714 44.418,14.1719 C44.6549,14.3698 44.9557,14.4688 45.3203,14.4688 C45.7292,14.4688 46.0547,14.3737 46.2969,14.1836 C46.5417,13.9935 46.6641,13.7422 46.6641,13.4297 C46.6641,12.763 46.2513,12.4232 45.4258,12.4102 L44.7227,12.4102 L44.7227,11.793 L45.4219,11.793 C45.8021,11.7852 46.0898,11.6992 46.2852,11.5352 C46.4805,11.3711 46.5781,11.1393 46.5781,10.8398 Z M50.9062,15 C50.8646,14.9167 50.8307,14.7682 50.8047,14.5547 C50.4688,14.9036 50.0677,15.0781 49.6016,15.0781 C49.1849,15.0781 48.8424,14.9609 48.5742,14.7266 C48.3086,14.4896 48.1758,14.1901 48.1758,13.8281 C48.1758,13.388 48.3424,13.0469 48.6758,12.8047 C49.0117,12.5599 49.4831,12.4375 50.0898,12.4375 L50.793,12.4375 L50.793,12.1055 C50.793,11.8529 50.7174,11.6523 50.5664,11.5039 C50.4154,11.3529 50.1927,11.2773 49.8984,11.2773 C49.6406,11.2773 49.4245,11.3424 49.25,11.4727 C49.0755,11.6029 48.9883,11.7604 48.9883,11.9453 L48.2617,11.9453 C48.2617,11.7344 48.3359,11.5312 48.4844,11.3359 C48.6354,11.138 48.8385,10.9818 49.0938,10.8672 C49.3516,10.7526 49.6341,10.6953 49.9414,10.6953 C50.4284,10.6953 50.8099,10.8177 51.0859,11.0625 C51.362,11.3047 51.5052,11.6393 51.5156,12.0664 L51.5156,14.0117 C51.5156,14.3997 51.5651,14.7083 51.6641,14.9375 L51.6641,15 L50.9062,15 Z M49.707,14.4492 C49.9336,14.4492 50.1484,14.3906 50.3516,14.2734 C50.5547,14.1562 50.7018,14.0039 50.793,13.8164 L50.793,12.9492 L50.2266,12.9492 C49.3411,12.9492 48.8984,13.2083 48.8984,13.7266 C48.8984,13.9531 48.974,14.1302 49.125,14.2578 C49.276,14.3854 49.4701,14.4492 49.707,14.4492 Z M55.3789,11.3711 L53.4297,11.3711 L53.4297,15 L52.7031,15 L52.7031,10.7734 L55.3789,10.7734 L55.3789,11.3711 Z M59.5781,12.9336 C59.5781,13.5768 59.431,14.0951 59.1367,14.4883 C58.8424,14.8815 58.444,15.0781 57.9414,15.0781 C57.4284,15.0781 57.0247,14.9154 56.7305,14.5898 L56.7305,16.625 L56.0078,16.625 L56.0078,10.7734 L56.668,10.7734 L56.7031,11.2422 C56.9974,10.8776 57.4062,10.6953 57.9297,10.6953 C58.4375,10.6953 58.8385,10.8867 59.1328,11.2695 C59.4297,11.6523 59.5781,12.1849 59.5781,12.8672 L59.5781,12.9336 Z M58.8555,12.8516 C58.8555,12.375 58.7539,11.9987 58.5508,11.7227 C58.3477,11.4466 58.069,11.3086 57.7148,11.3086 C57.2773,11.3086 56.9492,11.5026 56.7305,11.8906 L56.7305,13.9102 C56.9466,14.2956 57.2773,14.4883 57.7227,14.4883 C58.069,14.4883 58.3438,14.3516 58.5469,14.0781 C58.7526,13.8021 58.8555,13.3932 58.8555,12.8516 Z M61.8359,13.9414 L62.8203,10.7734 L63.5938,10.7734 L61.8945,15.6523 C61.6315,16.3555 61.2135,16.707 60.6406,16.707 L60.5039,16.6953 L60.2344,16.6445 L60.2344,16.0586 L60.4297,16.0742 C60.6745,16.0742 60.8646,16.0247 61,15.9258 C61.138,15.8268 61.2513,15.6458 61.3398,15.3828 L61.5,14.9531 L59.9922,10.7734 L60.7812,10.7734 L61.8359,13.9414 Z M66.5664,11.9297 C66.5664,11.7318 66.4909,11.5755 66.3398,11.4609 C66.1888,11.3438 65.9818,11.2852 65.7188,11.2852 C65.4635,11.2852 65.25,11.3516 65.0781,11.4844 C64.9089,11.6172 64.8242,11.7734 64.8242,11.9531 L64.1055,11.9531 C64.1055,11.5859 64.2591,11.2852 64.5664,11.0508 C64.8737,10.8164 65.2578,10.6992 65.7188,10.6992 C66.2135,10.6992 66.599,10.806 66.875,11.0195 C67.151,11.2305 67.2891,11.5326 67.2891,11.9258 C67.2891,12.1159 67.2318,12.2904 67.1172,12.4492 C67.0026,12.6081 66.8398,12.7344 66.6289,12.8281 C67.1211,12.9948 67.3672,13.3229 67.3672,13.8125 C67.3672,14.2005 67.2174,14.5078 66.918,14.7344 C66.6185,14.9609 66.2188,15.0742 65.7188,15.0742 C65.2318,15.0742 64.8294,14.9557 64.5117,14.7188 C64.1966,14.4792 64.0391,14.1562 64.0391,13.75 L64.7578,13.75 C64.7578,13.9557 64.849,14.1328 65.0312,14.2812 C65.2161,14.4271 65.4453,14.5 65.7188,14.5 C65.9948,14.5 66.2174,14.4362 66.3867,14.3086 C66.556,14.181 66.6406,14.0156 66.6406,13.8125 C66.6406,13.5755 66.569,13.4062 66.4258,13.3047 C66.2852,13.2005 66.0651,13.1484 65.7656,13.1484 L65.043,13.1484 L65.043,12.5391 L65.8281,12.5391 C66.3203,12.526 66.5664,12.3229 66.5664,11.9297 Z M71.0391,10.7734 L71.7617,10.7734 L71.7617,15 L71.0391,15 L71.0391,11.918 L69.0898,15 L68.3672,15 L68.3672,10.7734 L69.0898,10.7734 L69.0898,13.8594 L71.0391,10.7734 Z M76.0625,11.3594 L74.6445,11.3594 L74.6445,15 L73.9219,15 L73.9219,11.3594 L72.5312,11.3594 L72.5312,10.7734 L76.0625,10.7734 L76.0625,11.3594 Z M77.5547,12.2305 L78.6523,12.2305 C79.1315,12.2357 79.5104,12.3607 79.7891,12.6055 C80.0677,12.8503 80.207,13.1823 80.207,13.6016 C80.207,14.0234 80.0638,14.362 79.7773,14.6172 C79.4909,14.8724 79.1055,15 78.6211,15 L76.832,15 L76.832,10.7734 L77.5547,10.7734 L77.5547,12.2305 Z M77.5547,12.8203 L77.5547,14.4102 L78.6289,14.4102 C78.8997,14.4102 79.1094,14.3411 79.2578,14.2031 C79.4062,14.0625 79.4805,13.8711 79.4805,13.6289 C79.4805,13.3945 79.4076,13.2031 79.2617,13.0547 C79.1185,12.9036 78.9167,12.8255 78.6562,12.8203 L77.5547,12.8203 Z M83.1602,15 L83.1602,10.7734 L84.8086,10.7734 C85.3711,10.7734 85.8021,10.8724 86.1016,11.0703 C86.4036,11.2656 86.5547,11.5534 86.5547,11.9336 C86.5547,12.1289 86.4961,12.306 86.3789,12.4648 C86.2617,12.6211 86.0885,12.7409 85.8594,12.8242 C86.1146,12.8841 86.319,13.0013 86.4727,13.1758 C86.6289,13.3503 86.707,13.5586 86.707,13.8008 C86.707,14.1888 86.5638,14.4857 86.2773,14.6914 C85.9935,14.8971 85.5911,15 85.0703,15 L83.1602,15 Z M83.8828,13.1445 L83.8828,14.418 L85.0781,14.418 C85.3802,14.418 85.6055,14.362 85.7539,14.25 C85.9049,14.138 85.9805,13.9805 85.9805,13.7773 C85.9805,13.3555 85.6706,13.1445 85.0508,13.1445 L83.8828,13.1445 Z M83.8828,12.5664 L84.8164,12.5664 C85.4935,12.5664 85.832,12.3685 85.832,11.9727 C85.832,11.5768 85.5117,11.3724 84.8711,11.3594 L83.8828,11.3594 L83.8828,12.5664 Z M50.5234,28.3516 L46.1172,28.3516 L45.1953,31 L43.1406,31 L47.4375,19.625 L49.2109,19.625 L53.5156,31 L51.4531,31 L50.5234,28.3516 Z M46.6719,26.7578 L49.9688,26.7578 L48.3203,22.0391 L46.6719,26.7578 Z M61.6562,26.8594 C61.6562,28.1667 61.3594,29.2109 60.7656,29.9922 C60.1719,30.7682 59.375,31.1562 58.375,31.1562 C57.4479,31.1562 56.7057,30.8516 56.1484,30.2422 L56.1484,34.25 L54.25,34.25 L54.25,22.5469 L56,22.5469 L56.0781,23.4062 C56.6354,22.7292 57.3932,22.3906 58.3516,22.3906 C59.3828,22.3906 60.1901,22.776 60.7734,23.5469 C61.362,24.3125 61.6562,25.3776 61.6562,26.7422 L61.6562,26.8594 Z M59.7656,26.6953 C59.7656,25.8516 59.5964,25.1823 59.2578,24.6875 C58.9245,24.1927 58.4453,23.9453 57.8203,23.9453 C57.0443,23.9453 56.487,24.2656 56.1484,24.9062 L56.1484,28.6562 C56.4922,29.3125 57.0547,29.6406 57.8359,29.6406 C58.4401,29.6406 58.9115,29.3984 59.25,28.9141 C59.5938,28.4245 59.7656,27.6849 59.7656,26.6953 Z M70.6719,26.8594 C70.6719,28.1667 70.375,29.2109 69.7812,29.9922 C69.1875,30.7682 68.3906,31.1562 67.3906,31.1562 C66.4635,31.1562 65.7214,30.8516 65.1641,30.2422 L65.1641,34.25 L63.2656,34.25 L63.2656,22.5469 L65.0156,22.5469 L65.0938,23.4062 C65.651,22.7292 66.4089,22.3906 67.3672,22.3906 C68.3984,22.3906 69.2057,22.776 69.7891,23.5469 C70.3776,24.3125 70.6719,25.3776 70.6719,26.7422 L70.6719,26.8594 Z M68.7812,26.6953 C68.7812,25.8516 68.612,25.1823 68.2734,24.6875 C67.9401,24.1927 67.4609,23.9453 66.8359,23.9453 C66.0599,23.9453 65.5026,24.2656 65.1641,24.9062 L65.1641,28.6562 C65.5078,29.3125 66.0703,29.6406 66.8516,29.6406 C67.4557,29.6406 67.9271,29.3984 68.2656,28.9141 C68.6094,28.4245 68.7812,27.6849 68.7812,26.6953 Z M82.3984,28.0703 C82.3984,27.5703 82.2214,27.1849 81.8672,26.9141 C81.5182,26.6432 80.8854,26.3698 79.9688,26.0938 C79.0521,25.8177 78.3229,25.5104 77.7812,25.1719 C76.7448,24.5208 76.2266,23.6719 76.2266,22.625 C76.2266,21.7083 76.599,20.9531 77.3438,20.3594 C78.0938,19.7656 79.0651,19.4688 80.2578,19.4688 C81.0495,19.4688 81.7552,19.6146 82.375,19.9062 C82.9948,20.1979 83.4818,20.6146 83.8359,21.1562 C84.1901,21.6927 84.3672,22.2891 84.3672,22.9453 L82.3984,22.9453 C82.3984,22.3516 82.2109,21.888 81.8359,21.5547 C81.4661,21.2161 80.9349,21.0469 80.2422,21.0469 C79.5964,21.0469 79.0938,21.1849 78.7344,21.4609 C78.3802,21.737 78.2031,22.1224 78.2031,22.6172 C78.2031,23.0339 78.3958,23.3828 78.7812,23.6641 C79.1667,23.9401 79.8021,24.2109 80.6875,24.4766 C81.5729,24.737 82.2839,25.0365 82.8203,25.375 C83.3568,25.7083 83.75,26.0938 84,26.5312 C84.25,26.9635 84.375,27.4714 84.375,28.0547 C84.375,29.0026 84.0104,29.7578 83.2812,30.3203 C82.5573,30.8776 81.5729,31.1562 80.3281,31.1562 C79.5052,31.1562 78.7474,31.0052 78.0547,30.7031 C77.3672,30.3958 76.8307,29.974 76.4453,29.4375 C76.0651,28.901 75.875,28.276 75.875,27.5625 L77.8516,27.5625 C77.8516,28.2083 78.0651,28.7083 78.4922,29.0625 C78.9193,29.4167 79.5312,29.5938 80.3281,29.5938 C81.0156,29.5938 81.5312,29.4557 81.875,29.1797 C82.224,28.8984 82.3984,28.5286 82.3984,28.0703 Z M88.3047,20.4922 L88.3047,22.5469 L89.7969,22.5469 L89.7969,23.9531 L88.3047,23.9531 L88.3047,28.6719 C88.3047,28.9948 88.3672,29.2292 88.4922,29.375 C88.6224,29.5156 88.8516,29.5859 89.1797,29.5859 C89.3984,29.5859 89.6198,29.5599 89.8438,29.5078 L89.8438,30.9766 C89.4115,31.0964 88.9948,31.1562 88.5938,31.1562 C87.1354,31.1562 86.4062,30.3516 86.4062,28.7422 L86.4062,23.9531 L85.0156,23.9531 L85.0156,22.5469 L86.4062,22.5469 L86.4062,20.4922 L88.3047,20.4922 Z M90.6641,26.6953 C90.6641,25.8672 90.8281,25.1224 91.1562,24.4609 C91.4844,23.7943 91.9453,23.2839 92.5391,22.9297 C93.1328,22.5703 93.8151,22.3906 94.5859,22.3906 C95.7266,22.3906 96.651,22.7578 97.3594,23.4922 C98.0729,24.2266 98.4583,25.2005 98.5156,26.4141 L98.5234,26.8594 C98.5234,27.6927 98.362,28.4375 98.0391,29.0938 C97.7214,29.75 97.263,30.2578 96.6641,30.6172 C96.0703,30.9766 95.3828,31.1562 94.6016,31.1562 C93.4089,31.1562 92.4531,30.7604 91.7344,29.9688 C91.0208,29.1719 90.6641,28.112 90.6641,26.7891 L90.6641,26.6953 Z M92.5625,26.8594 C92.5625,27.7292 92.7422,28.4115 93.1016,28.9062 C93.4609,29.3958 93.9609,29.6406 94.6016,29.6406 C95.2422,29.6406 95.7396,29.3906 96.0938,28.8906 C96.4531,28.3906 96.6328,27.6589 96.6328,26.6953 C96.6328,25.8411 96.4479,25.1641 96.0781,24.6641 C95.7135,24.1641 95.2161,23.9141 94.5859,23.9141 C93.9661,23.9141 93.474,24.1615 93.1094,24.6562 C92.7448,25.1458 92.5625,25.8802 92.5625,26.8594 Z M104.555,24.2812 C104.305,24.2396 104.047,24.2188 103.781,24.2188 C102.911,24.2188 102.326,24.5521 102.023,25.2188 L102.023,31 L100.125,31 L100.125,22.5469 L101.938,22.5469 L101.984,23.4922 C102.443,22.7578 103.078,22.3906 103.891,22.3906 C104.161,22.3906 104.385,22.4271 104.562,22.5 L104.555,24.2812 Z M109.32,31.1562 C108.117,31.1562 107.141,30.7786 106.391,30.0234 C105.646,29.263 105.273,28.2526 105.273,26.9922 L105.273,26.7578 C105.273,25.9141 105.435,25.1615 105.758,24.5 C106.086,23.8333 106.544,23.3151 107.133,22.9453 C107.721,22.5755 108.378,22.3906 109.102,22.3906 C110.253,22.3906 111.141,22.7578 111.766,23.4922 C112.396,24.2266 112.711,25.2656 112.711,26.6094 L112.711,27.375 L107.188,27.375 C107.245,28.0729 107.477,28.625 107.883,29.0312 C108.294,29.4375 108.81,29.6406 109.43,29.6406 C110.299,29.6406 111.008,29.2891 111.555,28.5859 L112.578,29.5625 C112.24,30.0677 111.786,30.4609 111.219,30.7422 C110.656,31.0182 110.023,31.1562 109.32,31.1562 Z M109.094,23.9141 C108.573,23.9141 108.151,24.0964 107.828,24.4609 C107.51,24.8255 107.307,25.3333 107.219,25.9844 L110.836,25.9844 L110.836,25.8438 C110.794,25.2083 110.625,24.7292 110.328,24.4062 C110.031,24.0781 109.62,23.9141 109.094,23.9141 Z" id="Shape" fill="#FFFFFF"></path>
                        <rect id="Rectangle-path" fill-opacity="0" fill="#000000" x="11" y="7" width="21" height="25"></rect>
                        <rect id="Rectangle-path" fill-opacity="0" fill="#000000" x="11" y="7" width="21" height="25"></rect>
                        <path d="M28.5392,20.2835 C28.5067,17.1174 31.2029,15.599 31.3233,15.5236 C29.8084,13.3747 27.4485,13.0803 26.6076,13.0462 C24.5992,12.8491 22.6888,14.1924 21.6695,14.1924 C20.6528,14.1924 19.08,13.0754 17.4144,13.1047 C15.2253,13.1363 13.2069,14.3386 12.0798,16.239 C9.80541,20.0647 11.4973,25.7322 13.7141,28.8348 C14.7972,30.3536 16.0889,32.0594 17.7847,31.9984 C19.4178,31.9352 20.0353,30.9741 22.0097,30.9741 C23.9841,30.9741 24.5391,31.9984 26.2673,31.967 C28.0247,31.9353 29.138,30.4192 30.2137,28.8958 C31.4576,27.1339 31.9698,25.4281 32,25.3405 C31.961,25.3232 28.5732,24.0652 28.5392,20.2835 Z M25.2919,10.9922 C26.192,9.93369 26.7995,8.46509 26.6338,7 C25.3373,7.05117 23.7658,7.83716 22.8356,8.89331 C22.0009,9.83022 21.2703,11.3256 21.4661,12.7614 C22.9134,12.8708 24.3909,12.0484 25.2919,10.9922 Z" id="Shape" fill="#EEEAE7"></path>
                    </g>
                </g>
            </g>
        </g>
    </g>
</svg>