<?xml version="1.0" encoding="UTF-8"?>
<svg width="40px" height="35px" viewBox="0 0 40 35" version="1.1" xmlns="http://www.w3.org/2000/svg" xmlns:xlink="http://www.w3.org/1999/xlink">
    <!-- Generator: Sketch 51.2 (57519) - http://www.bohemiancoding.com/sketch -->
    <title>telegram (2)</title>
    <desc>Created with Sketch.</desc>
    <defs></defs>
    <g id="Page-1" stroke="none" stroke-width="1" fill="none" fill-rule="evenodd">
        <g id="zam_website_homepage-" transform="translate(-587.000000, -7798.000000)" fill-rule="nonzero">
            <g id="Group-57" transform="translate(0.000000, 7680.000000)">
                <g id="Group" transform="translate(555.000000, 100.000000)">
                    <g id="telegram-(2)" transform="translate(32.000000, 18.000000)">
                        <path d="M10.6153125,19.476629 L0.789453125,15.1188914 C-0.317890625,14.6281787 -0.24296875,13.0108937 0.90515625,12.6280317 L38.2691406,0.143404977 C39.2466406,-0.182918552 40.1992188,0.70158371 39.96375,1.71769231 L32.4972656,33.8948077 C32.2742969,34.8561199 31.1346094,35.2481674 30.3808594,34.6225226 L21.6074219,27.3464027 L10.6153125,19.476629 Z" id="Shape" fill="#EBF0FA"></path>
                        <path d="M30.9738281,7.0918552 L10.6153125,19.476629 L13.1063281,31.1880882 C13.3297656,32.2388009 14.5516406,32.7018778 15.4003906,32.0576244 L21.6075,27.3463235 L16.5003125,23.1099774 L31.6171094,7.93066742 C32.0603125,7.48556561 31.5089063,6.76632353 30.9738281,7.0918552 Z" id="Shape" fill="#BEC3D2"></path>
                        <path d="M13.9277344,32.2201131 C14.3853906,32.4297964 14.94625,32.4023982 15.4003906,32.0576244 L21.6075,27.3463235 L19.0539063,25.22819 L16.5003125,23.1100566 L13.9277344,32.2201131 Z" id="Shape" fill="#AFB4C8"></path>
                    </g>
                </g>
            </g>
        </g>
    </g>
</svg>